<?xml version="1.0" encoding="UTF-8" standalone="no"?>
<!DOCTYPE svg PUBLIC "-//W3C//DTD SVG 1.1//EN"
"http://www.w3.org/Graphics/SVG/1.1/DTD/svg11.dtd">
<svg viewBox="0 0 909 1286" version="1.1" xmlns="http://www.w3.org/2000/svg" xmlns:xlink="http://www.w3.org/1999/xlink">
<defs>
<clipPath id="c0_1"><path d="M0,1286.2V0H909.5V1286.2Z" /></clipPath>
<style type="text/css"><![CDATA[
.g0_1{
fill: #FFFFFF;
}
.g1_1{
fill: #D6D5D5;
}
.g2_1{
fill: none;
stroke: #000000;
stroke-width: 0.7638889;
stroke-linecap: butt;
stroke-linejoin: miter;
stroke-miterlimit: 4;
}
.g3_1{
fill: #5E5E5E;
}
.g4_1{
fill: #F8F9FA;
}
.g5_1{
fill: #00A2FF;
}
]]></style>
</defs>
<g clip-path="url(#c0_1)">
<path d="M0,0H910.6V1286.4H0Z" class="g0_1" />
</g>
<image preserveAspectRatio="none" x="344" y="0" width="221" height="221" xlink:href="img/1.png" />
<image preserveAspectRatio="none" x="84" y="308" width="658" height="469" xlink:href="img/2.png" />
<path d="M93.3,313.3h97.2v92.1H93.3Z" class="g1_1" />
<path d="M93.3,313.3h97.2v92.1H93.3Z" class="g2_1" />
<path d="M142,320.6c-.9,-.1,-2.3,.2,-3.4,1.7c-.7,1,-.6,1.8,-1.8,4.4c-1.6,3.4,1.1,4,-.7,5.8c-.8,.7,-.2,1.9,-.2,1.9c-.2,.1,-.4,.1,-.6,.1c-.8,.2,-1.7,.5,-2.5,1.8c-1.2,1.9,-3.8,5.8,-5.9,9c-.1,.1,-.1,.2,-.1,.3c-.3,.4,-.3,.9,-.1,1.5c.5,.8,.6,1.6,1.1,3c.6,1.4,1.8,2.9,2.8,4.4c.2,.4,.2,.7,.8,1.6c.3,.5,.9,.4,.7,.4c.5,.1,1,-.1,1,0c-.3,2.1,-.2,4.7,.2,7.4c.2,1.6,2.6,10.6,2.6,12.1c.3,6.7,1.1,11.8,1.6,14.7c.1,.2,.1,.3,.2,.3c0,0,.1,0,.3,.1c0,1.4,.4,1.1,-.3,2.2c-.4,.6,-1.3,1.3,-1.2,2.5c0,.5,.1,.7,.4,1c.5,.4,2.1,1,3.6,-.1c.7,-.6,.3,-1.7,.4,-2.1c.2,-.6,.5,-.9,.3,-2.4c0,-.2,-.1,-.8,-.2,-1.2c.2,0,.3,-.1,.3,-.2c0,-1.6,.1,-2.4,0,-4.8c-.1,-1.7,0,-3,-.1,-4.8c-.1,-2,-.3,-1.8,-.4,-3.7c-.1,-.9,-.1,-1.7,-.1,-2.6c.1,-.3,.2,-2.6,.2,-2.9c.1,-3.8,.2,-5.3,.3,-9c.1,-.3,.3,-.5,.4,-.2c1,2.4,1.5,3.6,2.4,5.9c.7,1.8,2.3,6.6,2.4,7.5c.2,1.6,.5,3.1,.7,5.1c.5,3.5,1.9,8.2,2.1,9.1c.1,.2,.1,.3,.1,.4c.1,.1,.2,.1,.5,.1c0,.7,.1,1.9,-.4,2.8c-.4,.7,.3,1.8,.3,1.8c.4,.4,.9,.6,1.5,.5c.6,0,1,.3,1.2,.4c0,.1,.1,.1,.1,.1c0,0,1.9,.8,4,.5c.9,-.1,1,-.7,.3,-1.5c-.9,-1.1,-2,-1.3,-2.5,-2c-.8,-1.4,-1.3,-1.7,-1.5,-2.7c.2,-.1,.4,-.1,.4,-.1c0,0,-.2,-1.8,-.3,-3c-.3,-3,-.5,-5.1,-.6,-6.8c-.2,-2.9,-.8,-4.2,-1,-5.2c-.6,-3.4,-.8,-3.7,-1.1,-7.2c-.1,-.7,-.4,-5.3,-.8,-8c-.3,-1.5,-.7,-2.8,-1.1,-4.3c.1,.5,.2,-.1,.6,-.2c.9,-.2,1.3,-.8,1.8,-1.4c1.3,-1.7,5,-6.1,5.6,-7.3c.2,-.5,.7,-1.7,.7,-2.2c0,-.7,-.7,-1.5,-.9,-2c-.3,-.6,-1,-1.7,-1.4,-2.2c-1,-1.4,-1.6,-1.8,-3,-3.5c-.3,-.3,-1.3,-2.5,-2.4,-2.9c-.9,-.4,-2.7,-.4,-2.7,-.4c.2,-.9,-.5,-1.3,-.5,-2.2c0,-2,2.1,-1.1,.2,-6.4c-.2,-.5,-.6,-2.9,-1.9,-3.7c-.2,-.1,-.5,-.2,-.7,-.4c-.2,-.2,-.6,-.5,-1,-.7c-.2,0,-.4,-.1,-.7,-.1Zm6.8,20.2c.2,0,.4,.1,.7,.3c1.1,.9,4,4.2,4,4.6c0,.3,-.4,1.2,-1.4,2.9c-.6,1.2,-1.3,1.9,-2.2,3.3c-.1,.1,-.4,.8,-.8,.8c0,0,-.6,-.2,-1.1,-.6c-.5,-.3,-1.1,-.3,-1.1,-.2c0,0,-.5,-.8,-.5,-2.6c.1,-3.5,.6,-4.7,1,-6c.5,-1.5,.8,-2.5,1.4,-2.5Zm-14.5,.9c.2,-.1,.4,0,.5,.5c0,.3,.1,.9,.2,1.3c.3,1.6,.7,1.9,.7,2.9c.2,4.3,-.8,4.2,-1.4,6.1c-.1,-.1,-1,.2,-1.8,.6c-1,-1.1,-1.5,-5.1,-2.3,-6.5c-.3,-.7,.9,-1.6,1.8,-2.6c.7,-.8,1.1,-1.1,1.8,-2.1c.1,0,.3,-.2,.5,-.2Z" class="g3_1" />
<path d="M197.2,331.4H601.6v58.2H197.2Z" class="g4_1" />
<path d="M82,944c-6.2,0,-11.3,5,-11.3,11.3c0,6.2,5.1,11.3,11.3,11.3c6.3,0,11.3,-5.1,11.3,-11.3C93.3,949,88.3,944,82,944Zm0,1.3c5.5,0,10,4.5,10,10c0,5.5,-4.5,10,-10,10c-5.5,0,-10,-4.5,-10,-10c0,-5.5,4.5,-10,10,-10Zm0,.3c-5.3,0,-9.7,4.3,-9.7,9.7c0,5.3,4.4,9.7,9.7,9.7c5.4,0,9.7,-4.4,9.7,-9.7c0,-5.4,-4.3,-9.7,-9.7,-9.7Zm0,1.3c4.6,0,8.4,3.8,8.4,8.4c0,4.6,-3.8,8.4,-8.4,8.4c-4.6,0,-8.4,-3.8,-8.4,-8.4c0,-4.6,3.8,-8.4,8.4,-8.4Zm0,2.2c-3.4,0,-6.2,2.7,-6.2,6.2c0,3.4,2.8,6.2,6.2,6.2c3.5,0,6.2,-2.8,6.2,-6.2c0,-3.5,-2.7,-6.2,-6.2,-6.2Zm0,1.9c2.4,0,4.3,1.9,4.3,4.3c0,2.4,-1.9,4.3,-4.3,4.3c-2.4,0,-4.3,-1.9,-4.3,-4.3c0,-2.4,1.9,-4.3,4.3,-4.3Zm0,2.1c-.5,0,-1.1,.2,-1.5,.7c-.8,.8,-.8,2.2,0,3c.8,.8,2.2,.8,3,0c.9,-.8,.9,-2.2,0,-3c-.4,-.5,-.9,-.7,-1.5,-.7Z" class="g5_1" />
<path d="M82,885.9c-6.2,0,-11.3,5.1,-11.3,11.3c0,6.3,5.1,11.3,11.3,11.3c6.3,0,11.3,-5,11.3,-11.3c0,-6.2,-5,-11.3,-11.3,-11.3Zm0,1.3c5.5,0,10,4.5,10,10c0,5.5,-4.5,10,-10,10c-5.5,0,-10,-4.5,-10,-10c0,-5.5,4.5,-10,10,-10Zm0,.3c-5.3,0,-9.7,4.4,-9.7,9.7c0,5.4,4.4,9.7,9.7,9.7c5.4,0,9.7,-4.3,9.7,-9.7c0,-5.3,-4.3,-9.7,-9.7,-9.7Zm0,1.4c4.6,0,8.4,3.7,8.4,8.3c0,4.6,-3.8,8.4,-8.4,8.4c-4.6,0,-8.4,-3.8,-8.4,-8.4c0,-4.6,3.8,-8.3,8.4,-8.3Zm0,2.1c-3.4,0,-6.2,2.8,-6.2,6.2c0,3.5,2.8,6.3,6.2,6.3c3.5,0,6.2,-2.8,6.2,-6.3C88.2,893.8,85.5,891,82,891Zm0,1.9c2.4,0,4.3,1.9,4.3,4.3c0,2.4,-1.9,4.4,-4.3,4.4c-2.4,0,-4.3,-2,-4.3,-4.4c0,-2.4,1.9,-4.3,4.3,-4.3Zm0,2.2c-.5,0,-1.1,.2,-1.5,.6c-.8,.8,-.8,2.2,0,3c.8,.9,2.2,.9,3,0c.9,-.8,.9,-2.2,0,-3c-.4,-.4,-.9,-.6,-1.5,-.6Z" class="g5_1" />
<path d="M82,826.6c-6.2,0,-11.3,5.1,-11.3,11.3c0,6.3,5.1,11.4,11.3,11.4c6.3,0,11.3,-5.1,11.3,-11.4c0,-6.2,-5,-11.3,-11.3,-11.3Zm0,1.3c5.5,0,10,4.5,10,10c0,5.6,-4.5,10,-10,10c-5.5,0,-10,-4.4,-10,-10c0,-5.5,4.5,-10,10,-10Zm0,.3c-5.3,0,-9.7,4.4,-9.7,9.7c0,5.4,4.4,9.8,9.7,9.8c5.4,0,9.7,-4.4,9.7,-9.8c0,-5.3,-4.3,-9.7,-9.7,-9.7Zm0,1.4c4.6,0,8.4,3.7,8.4,8.3c0,4.7,-3.8,8.4,-8.4,8.4c-4.6,0,-8.4,-3.7,-8.4,-8.4c0,-4.6,3.8,-8.3,8.4,-8.3Zm0,2.1c-3.4,0,-6.2,2.8,-6.2,6.2c0,3.5,2.8,6.3,6.2,6.3c3.5,0,6.2,-2.8,6.2,-6.3c0,-3.4,-2.7,-6.2,-6.2,-6.2Zm0,1.9c2.4,0,4.3,2,4.3,4.3c0,2.4,-1.9,4.4,-4.3,4.4c-2.4,0,-4.3,-2,-4.3,-4.4c0,-2.3,1.9,-4.3,4.3,-4.3Zm0,2.2c-.5,0,-1.1,.2,-1.5,.6c-.8,.9,-.8,2.2,0,3.1c.8,.8,2.2,.8,3,0c.9,-.9,.9,-2.2,0,-3.1c-.4,-.4,-.9,-.6,-1.5,-.6Z" class="g5_1" />
</svg>