<?xml version="1.0" encoding="UTF-8" standalone="no"?>
<!DOCTYPE svg PUBLIC "-//W3C//DTD SVG 1.1//EN"
"http://www.w3.org/Graphics/SVG/1.1/DTD/svg11.dtd">
<svg viewBox="0 0 909 1286" version="1.1" xmlns="http://www.w3.org/2000/svg" xmlns:xlink="http://www.w3.org/1999/xlink">
<defs>
<clipPath id="c0_3"><path d="M0,1286.2V0H909.5V1286.2Z" /></clipPath>
<style type="text/css"><![CDATA[
.g0_3{
fill: #FFFFFF;
}
.g1_3{
fill: none;
stroke: #BFBFBF;
stroke-width: 0.38194445;
stroke-linecap: butt;
stroke-linejoin: miter;
stroke-miterlimit: 4;
}
.g2_3{
fill: none;
stroke: #DEE2E6;
stroke-width: 1.5277778;
stroke-linecap: butt;
stroke-linejoin: miter;
stroke-miterlimit: 4;
}
.g3_3{
fill: none;
stroke: #DEE2E6;
stroke-width: 3.0555556;
stroke-linecap: butt;
stroke-linejoin: miter;
stroke-miterlimit: 4;
}
.g4_3{
fill: #00A2FF;
}
]]></style>
</defs>
<g clip-path="url(#c0_3)">
<path d="M0,-1.1H910.6V1286.7H0Z" class="g0_3" />
</g>
<path d="M153.9,1069v43.1M308.1,1069v43.1M396.4,1069v43.1M554.2,1069v43.1M639.8,1069v43.1M86.8,1069v43.1m736,-43.1v43.1" class="g1_3" />
<path d="M86,1069.7H823.6" class="g2_3" />
<path d="M86,1110.5H823.6" class="g3_3" />
<image preserveAspectRatio="none" x="87" y="742" width="180" height="207" xlink:href="img/1.png" />
<path d="M75.3,101.3c-6.2,0,-11.3,5,-11.3,11.3c0,6.2,5.1,11.3,11.3,11.3c6.3,0,11.3,-5.1,11.3,-11.3c0,-6.3,-5,-11.3,-11.3,-11.3Zm0,1.3c5.5,0,10,4.5,10,10c0,5.5,-4.5,10,-10,10c-5.5,0,-10,-4.5,-10,-10c0,-5.5,4.5,-10,10,-10Zm0,.3c-5.4,0,-9.7,4.3,-9.7,9.7c0,5.4,4.3,9.7,9.7,9.7c5.4,0,9.7,-4.3,9.7,-9.7c0,-5.4,-4.3,-9.7,-9.7,-9.7Zm0,1.3c4.6,0,8.4,3.8,8.4,8.4c0,4.6,-3.8,8.4,-8.4,8.4c-4.6,0,-8.4,-3.8,-8.4,-8.4c0,-4.6,3.8,-8.4,8.4,-8.4Zm0,2.2c-3.4,0,-6.2,2.8,-6.2,6.2c0,3.4,2.8,6.2,6.2,6.2c3.4,0,6.2,-2.8,6.2,-6.2c0,-3.4,-2.8,-6.2,-6.2,-6.2Zm0,1.9c2.4,0,4.3,1.9,4.3,4.3c0,2.4,-1.9,4.3,-4.3,4.3C72.9,116.9,71,115,71,112.6c0,-2.4,1.9,-4.3,4.3,-4.3Zm0,2.1c-.5,0,-1.1,.3,-1.5,.7c-.8,.8,-.8,2.2,0,3c.8,.8,2.2,.8,3,0c.9,-.8,.9,-2.2,0,-3c-.4,-.4,-.9,-.7,-1.5,-.7Z" class="g4_3" />
<path d="M75.3,160.9c-6.2,0,-11.3,5,-11.3,11.3c0,6.2,5.1,11.3,11.3,11.3c6.3,0,11.3,-5.1,11.3,-11.3c0,-6.3,-5,-11.3,-11.3,-11.3Zm0,1.3c5.5,0,10,4.5,10,10c0,5.5,-4.5,10,-10,10c-5.5,0,-10,-4.5,-10,-10c0,-5.5,4.5,-10,10,-10Zm0,.3c-5.4,0,-9.7,4.3,-9.7,9.7c0,5.3,4.3,9.7,9.7,9.7c5.4,0,9.7,-4.4,9.7,-9.7c0,-5.4,-4.3,-9.7,-9.7,-9.7Zm0,1.3c4.6,0,8.4,3.8,8.4,8.4c0,4.6,-3.8,8.3,-8.4,8.3c-4.6,0,-8.4,-3.7,-8.4,-8.3c0,-4.6,3.8,-8.4,8.4,-8.4Zm0,2.1c-3.4,0,-6.2,2.8,-6.2,6.3c0,3.4,2.8,6.2,6.2,6.2c3.4,0,6.2,-2.8,6.2,-6.2c0,-3.5,-2.8,-6.3,-6.2,-6.3Zm0,1.9c2.4,0,4.3,2,4.3,4.4c0,2.4,-1.9,4.3,-4.3,4.3c-2.4,0,-4.3,-1.9,-4.3,-4.3c0,-2.4,1.9,-4.4,4.3,-4.4Zm0,2.2c-.5,0,-1.1,.2,-1.5,.7c-.8,.8,-.8,2.2,0,3c.8,.8,2.2,.8,3,0c.9,-.8,.9,-2.2,0,-3c-.4,-.5,-.9,-.7,-1.5,-.7Z" class="g4_3" />
<path d="M75.3,221.4c-6.2,0,-11.3,5,-11.3,11.3c0,6.2,5.1,11.3,11.3,11.3c6.3,0,11.3,-5.1,11.3,-11.3c0,-6.3,-5,-11.3,-11.3,-11.3Zm0,1.3c5.5,0,10,4.5,10,10c0,5.5,-4.5,10,-10,10c-5.5,0,-10,-4.5,-10,-10c0,-5.5,4.5,-10,10,-10Zm0,.3c-5.4,0,-9.7,4.3,-9.7,9.7c0,5.3,4.3,9.7,9.7,9.7c5.4,0,9.7,-4.4,9.7,-9.7C85,227.3,80.7,223,75.3,223Zm0,1.3c4.6,0,8.4,3.8,8.4,8.4c0,4.6,-3.8,8.3,-8.4,8.3c-4.6,0,-8.4,-3.7,-8.4,-8.3c0,-4.6,3.8,-8.4,8.4,-8.4Zm0,2.1c-3.4,0,-6.2,2.8,-6.2,6.3c0,3.4,2.8,6.2,6.2,6.2c3.4,0,6.2,-2.8,6.2,-6.2c0,-3.5,-2.8,-6.3,-6.2,-6.3Zm0,1.9c2.4,0,4.3,2,4.3,4.4c0,2.4,-1.9,4.3,-4.3,4.3C72.9,237,71,235.1,71,232.7c0,-2.4,1.9,-4.4,4.3,-4.4Zm0,2.2c-.5,0,-1.1,.2,-1.5,.7c-.8,.8,-.8,2.2,0,3c.8,.8,2.2,.8,3,0c.9,-.8,.9,-2.2,0,-3c-.4,-.5,-.9,-.7,-1.5,-.7Z" class="g4_3" />
<path d="M75.3,279.4c-6.2,0,-11.3,5.1,-11.3,11.3C64,297,69.1,302,75.3,302c6.3,0,11.3,-5,11.3,-11.3c0,-6.2,-5,-11.3,-11.3,-11.3Zm0,1.3c5.5,0,10,4.5,10,10c0,5.5,-4.5,10,-10,10c-5.5,0,-10,-4.5,-10,-10c0,-5.5,4.5,-10,10,-10Zm0,.3c-5.4,0,-9.7,4.4,-9.7,9.7c0,5.4,4.3,9.7,9.7,9.7c5.4,0,9.7,-4.3,9.7,-9.7C85,285.4,80.7,281,75.3,281Zm0,1.4c4.6,0,8.4,3.7,8.4,8.3c0,4.7,-3.8,8.4,-8.4,8.4c-4.6,0,-8.4,-3.7,-8.4,-8.4c0,-4.6,3.8,-8.3,8.4,-8.3Zm0,2.1c-3.4,0,-6.2,2.8,-6.2,6.2c0,3.5,2.8,6.3,6.2,6.3c3.4,0,6.2,-2.8,6.2,-6.3c0,-3.4,-2.8,-6.2,-6.2,-6.2Zm0,1.9c2.4,0,4.3,1.9,4.3,4.3c0,2.4,-1.9,4.4,-4.3,4.4c-2.4,0,-4.3,-2,-4.3,-4.4c0,-2.4,1.9,-4.3,4.3,-4.3Zm0,2.2c-.5,0,-1.1,.2,-1.5,.6c-.8,.9,-.8,2.2,0,3c.8,.9,2.2,.9,3,0c.9,-.8,.9,-2.1,0,-3c-.4,-.4,-.9,-.6,-1.5,-.6Z" class="g4_3" />
<path d="M75.3,357C69.1,357,64,362.1,64,368.3c0,6.3,5.1,11.4,11.3,11.4c6.3,0,11.3,-5.1,11.3,-11.4c0,-6.2,-5,-11.3,-11.3,-11.3Zm0,1.3c5.5,0,10,4.5,10,10c0,5.6,-4.5,10,-10,10c-5.5,0,-10,-4.4,-10,-10c0,-5.5,4.5,-10,10,-10Zm0,.3c-5.4,0,-9.7,4.4,-9.7,9.7c0,5.4,4.3,9.8,9.7,9.8c5.4,0,9.7,-4.4,9.7,-9.8c0,-5.3,-4.3,-9.7,-9.7,-9.7Zm0,1.4c4.6,0,8.4,3.7,8.4,8.3c0,4.7,-3.8,8.4,-8.4,8.4c-4.6,0,-8.4,-3.7,-8.4,-8.4c0,-4.6,3.8,-8.3,8.4,-8.3Zm0,2.1c-3.4,0,-6.2,2.8,-6.2,6.2c0,3.5,2.8,6.3,6.2,6.3c3.4,0,6.2,-2.8,6.2,-6.3c0,-3.4,-2.8,-6.2,-6.2,-6.2Zm0,1.9c2.4,0,4.3,1.9,4.3,4.3c0,2.4,-1.9,4.4,-4.3,4.4c-2.4,0,-4.3,-2,-4.3,-4.4c0,-2.4,1.9,-4.3,4.3,-4.3Zm0,2.2c-.5,0,-1.1,.2,-1.5,.6c-.8,.9,-.8,2.2,0,3.1c.8,.8,2.2,.8,3,0c.9,-.9,.9,-2.2,0,-3.1c-.4,-.4,-.9,-.6,-1.5,-.6Z" class="g4_3" />
<path d="M75.3,437.1c-6.2,0,-11.3,5.1,-11.3,11.3c0,6.2,5.1,11.3,11.3,11.3c6.3,0,11.3,-5.1,11.3,-11.3c0,-6.2,-5,-11.3,-11.3,-11.3Zm0,1.3c5.5,0,10,4.5,10,10c0,5.5,-4.5,10,-10,10c-5.5,0,-10,-4.5,-10,-10c0,-5.5,4.5,-10,10,-10Zm0,.3c-5.4,0,-9.7,4.3,-9.7,9.7c0,5.4,4.3,9.7,9.7,9.7c5.4,0,9.7,-4.3,9.7,-9.7c0,-5.4,-4.3,-9.7,-9.7,-9.7Zm0,1.3c4.6,0,8.4,3.8,8.4,8.4c0,4.6,-3.8,8.4,-8.4,8.4c-4.6,0,-8.4,-3.8,-8.4,-8.4c0,-4.6,3.8,-8.4,8.4,-8.4Zm0,2.2c-3.4,0,-6.2,2.8,-6.2,6.2c0,3.4,2.8,6.2,6.2,6.2c3.4,0,6.2,-2.8,6.2,-6.2c0,-3.4,-2.8,-6.2,-6.2,-6.2Zm0,1.9c2.4,0,4.3,1.9,4.3,4.3c0,2.4,-1.9,4.3,-4.3,4.3c-2.4,0,-4.3,-1.9,-4.3,-4.3c0,-2.4,1.9,-4.3,4.3,-4.3Zm0,2.2c-.5,0,-1.1,.2,-1.5,.6c-.8,.8,-.8,2.2,0,3c.8,.8,2.2,.8,3,0c.9,-.8,.9,-2.2,0,-3c-.4,-.4,-.9,-.6,-1.5,-.6Z" class="g4_3" />
<path d="M75.3,531.8c-6.2,0,-11.3,5.1,-11.3,11.3c0,6.3,5.1,11.3,11.3,11.3c6.3,0,11.3,-5,11.3,-11.3c0,-6.2,-5,-11.3,-11.3,-11.3Zm0,1.3c5.5,0,10,4.5,10,10c0,5.5,-4.5,10,-10,10c-5.5,0,-10,-4.5,-10,-10c0,-5.5,4.5,-10,10,-10Zm0,.3c-5.4,0,-9.7,4.4,-9.7,9.7c0,5.4,4.3,9.7,9.7,9.7c5.4,0,9.7,-4.3,9.7,-9.7c0,-5.3,-4.3,-9.7,-9.7,-9.7Zm0,1.4c4.6,0,8.4,3.7,8.4,8.3c0,4.6,-3.8,8.4,-8.4,8.4c-4.6,0,-8.4,-3.8,-8.4,-8.4c0,-4.6,3.8,-8.3,8.4,-8.3Zm0,2.1c-3.4,0,-6.2,2.8,-6.2,6.2c0,3.5,2.8,6.2,6.2,6.2c3.4,0,6.2,-2.7,6.2,-6.2c0,-3.4,-2.8,-6.2,-6.2,-6.2Zm0,1.9c2.4,0,4.3,1.9,4.3,4.3c0,2.4,-1.9,4.4,-4.3,4.4c-2.4,0,-4.3,-2,-4.3,-4.4c0,-2.4,1.9,-4.3,4.3,-4.3Zm0,2.2c-.5,0,-1.1,.2,-1.5,.6c-.8,.8,-.8,2.2,0,3c.8,.9,2.2,.9,3,0c.9,-.8,.9,-2.2,0,-3c-.4,-.4,-.9,-.6,-1.5,-.6Z" class="g4_3" />
<path d="M75.3,591.1c-6.2,0,-11.3,5.1,-11.3,11.3c0,6.2,5.1,11.3,11.3,11.3c6.3,0,11.3,-5.1,11.3,-11.3c0,-6.2,-5,-11.3,-11.3,-11.3Zm0,1.3c5.5,0,10,4.5,10,10c0,5.5,-4.5,10,-10,10c-5.5,0,-10,-4.5,-10,-10c0,-5.5,4.5,-10,10,-10Zm0,.3c-5.4,0,-9.7,4.3,-9.7,9.7c0,5.4,4.3,9.7,9.7,9.7c5.4,0,9.7,-4.3,9.7,-9.7c0,-5.4,-4.3,-9.7,-9.7,-9.7Zm0,1.3c4.6,0,8.4,3.8,8.4,8.4c0,4.6,-3.8,8.4,-8.4,8.4c-4.6,0,-8.4,-3.8,-8.4,-8.4c0,-4.6,3.8,-8.4,8.4,-8.4Zm0,2.2c-3.4,0,-6.2,2.8,-6.2,6.2c0,3.4,2.8,6.2,6.2,6.2c3.4,0,6.2,-2.8,6.2,-6.2c0,-3.4,-2.8,-6.2,-6.2,-6.2Zm0,1.9c2.4,0,4.3,1.9,4.3,4.3c0,2.4,-1.9,4.3,-4.3,4.3c-2.4,0,-4.3,-1.9,-4.3,-4.3c0,-2.4,1.9,-4.3,4.3,-4.3Zm0,2.2c-.5,0,-1.1,.2,-1.5,.6c-.8,.8,-.8,2.2,0,3c.8,.8,2.2,.8,3,0c.9,-.8,.9,-2.2,0,-3c-.4,-.4,-.9,-.6,-1.5,-.6Z" class="g4_3" />
<path d="M75.3,652.8c-6.2,0,-11.3,5.1,-11.3,11.3c0,6.3,5.1,11.3,11.3,11.3c6.3,0,11.3,-5,11.3,-11.3c0,-6.2,-5,-11.3,-11.3,-11.3Zm0,1.3c5.5,0,10,4.5,10,10c0,5.5,-4.5,10,-10,10c-5.5,0,-10,-4.5,-10,-10c0,-5.5,4.5,-10,10,-10Zm0,.3c-5.4,0,-9.7,4.4,-9.7,9.7c0,5.4,4.3,9.7,9.7,9.7c5.4,0,9.7,-4.3,9.7,-9.7c0,-5.3,-4.3,-9.7,-9.7,-9.7Zm0,1.4c4.6,0,8.4,3.7,8.4,8.3c0,4.6,-3.8,8.4,-8.4,8.4c-4.6,0,-8.4,-3.8,-8.4,-8.4c0,-4.6,3.8,-8.3,8.4,-8.3Zm0,2.1c-3.4,0,-6.2,2.8,-6.2,6.2c0,3.5,2.8,6.2,6.2,6.2c3.4,0,6.2,-2.7,6.2,-6.2c0,-3.4,-2.8,-6.2,-6.2,-6.2Zm0,1.9c2.4,0,4.3,1.9,4.3,4.3c0,2.4,-1.9,4.4,-4.3,4.4c-2.4,0,-4.3,-2,-4.3,-4.4c0,-2.4,1.9,-4.3,4.3,-4.3Zm0,2.2c-.5,0,-1.1,.2,-1.5,.6c-.8,.8,-.8,2.2,0,3c.8,.9,2.2,.9,3,0c.9,-.8,.9,-2.2,0,-3c-.4,-.4,-.9,-.6,-1.5,-.6Z" class="g4_3" />
<path d="M75.3,985.6c-6.2,0,-11.3,5,-11.3,11.3c0,6.2,5.1,11.3,11.3,11.3c6.3,0,11.3,-5.1,11.3,-11.3c0,-6.3,-5,-11.3,-11.3,-11.3Zm0,1.3c5.5,0,10,4.5,10,10c0,5.5,-4.5,10,-10,10c-5.5,0,-10,-4.5,-10,-10c0,-5.5,4.5,-10,10,-10Zm0,.3c-5.4,0,-9.7,4.3,-9.7,9.7c0,5.3,4.3,9.7,9.7,9.7c5.4,0,9.7,-4.4,9.7,-9.7c0,-5.4,-4.3,-9.7,-9.7,-9.7Zm0,1.3c4.6,0,8.4,3.7,8.4,8.4c0,4.6,-3.8,8.3,-8.4,8.3c-4.6,0,-8.4,-3.7,-8.4,-8.3c0,-4.7,3.8,-8.4,8.4,-8.4Zm0,2.1c-3.4,0,-6.2,2.8,-6.2,6.3c0,3.4,2.8,6.2,6.2,6.2c3.4,0,6.2,-2.8,6.2,-6.2c0,-3.5,-2.8,-6.3,-6.2,-6.3Zm0,1.9c2.4,0,4.3,2,4.3,4.4c0,2.4,-1.9,4.3,-4.3,4.3c-2.4,0,-4.3,-1.9,-4.3,-4.3c0,-2.4,1.9,-4.4,4.3,-4.4Zm0,2.2c-.5,0,-1.1,.2,-1.5,.7c-.8,.8,-.8,2.1,0,3c.8,.8,2.2,.8,3,0c.9,-.9,.9,-2.2,0,-3c-.4,-.5,-.9,-.7,-1.5,-.7Z" class="g4_3" />
</svg>