<?xml version="1.0" encoding="UTF-8" standalone="no"?>
<!DOCTYPE svg PUBLIC "-//W3C//DTD SVG 1.1//EN"
"http://www.w3.org/Graphics/SVG/1.1/DTD/svg11.dtd">
<svg viewBox="0 0 909 1286" version="1.1" xmlns="http://www.w3.org/2000/svg" xmlns:xlink="http://www.w3.org/1999/xlink">
<defs>
<clipPath id="c0_2"><path d="M0,1286.2V0H909.5V1286.2Z" /></clipPath>
<style type="text/css"><![CDATA[
.g0_2{
fill: #FFFFFF;
}
.g1_2{
fill: #00A2FF;
}
]]></style>
</defs>
<g clip-path="url(#c0_2)">
<path d="M0,-1.3H910.6V1286.6H0Z" class="g0_2" />
</g>
<path d="M86.6,188.8c-6.2,0,-11.3,5.1,-11.3,11.3c0,6.3,5.1,11.3,11.3,11.3c6.3,0,11.3,-5,11.3,-11.3c0,-6.2,-5,-11.3,-11.3,-11.3Zm0,1.3c5.5,0,10,4.5,10,10c0,5.5,-4.5,10,-10,10c-5.5,0,-10,-4.5,-10,-10c0,-5.5,4.5,-10,10,-10Zm0,.3c-5.3,0,-9.7,4.4,-9.7,9.7c0,5.4,4.4,9.7,9.7,9.7c5.4,0,9.7,-4.3,9.7,-9.7c0,-5.3,-4.3,-9.7,-9.7,-9.7Zm0,1.3c4.6,0,8.4,3.8,8.4,8.4c0,4.6,-3.8,8.4,-8.4,8.4c-4.6,0,-8.4,-3.8,-8.4,-8.4c0,-4.6,3.8,-8.4,8.4,-8.4Zm0,2.2c-3.4,0,-6.2,2.8,-6.2,6.2c0,3.5,2.8,6.2,6.2,6.2c3.5,0,6.2,-2.7,6.2,-6.2c0,-3.4,-2.7,-6.2,-6.2,-6.2Zm0,1.9c2.4,0,4.3,1.9,4.3,4.3c0,2.4,-1.9,4.3,-4.3,4.3c-2.4,0,-4.3,-1.9,-4.3,-4.3c0,-2.4,1.9,-4.3,4.3,-4.3Zm0,2.2c-.5,0,-1.1,.2,-1.5,.6c-.8,.8,-.8,2.2,0,3c.8,.9,2.2,.9,3,0c.9,-.8,.9,-2.2,0,-3c-.4,-.4,-.9,-.6,-1.5,-.6Z" class="g1_2" />
<path d="M86.6,359.3c-6.2,0,-11.3,5.1,-11.3,11.3c0,6.3,5.1,11.3,11.3,11.3c6.3,0,11.3,-5,11.3,-11.3c0,-6.2,-5,-11.3,-11.3,-11.3Zm0,1.3c5.5,0,10,4.5,10,10c0,5.5,-4.5,10,-10,10c-5.5,0,-10,-4.5,-10,-10c0,-5.5,4.5,-10,10,-10Zm0,.3c-5.3,0,-9.7,4.4,-9.7,9.7c0,5.4,4.4,9.7,9.7,9.7c5.4,0,9.7,-4.3,9.7,-9.7c0,-5.3,-4.3,-9.7,-9.7,-9.7Zm0,1.3c4.6,0,8.4,3.8,8.4,8.4c0,4.6,-3.8,8.4,-8.4,8.4c-4.6,0,-8.4,-3.8,-8.4,-8.4c0,-4.6,3.8,-8.4,8.4,-8.4Zm0,2.2c-3.4,0,-6.2,2.8,-6.2,6.2c0,3.5,2.8,6.2,6.2,6.2c3.5,0,6.2,-2.7,6.2,-6.2c0,-3.4,-2.7,-6.2,-6.2,-6.2Zm0,1.9c2.4,0,4.3,1.9,4.3,4.3c0,2.4,-1.9,4.3,-4.3,4.3c-2.4,0,-4.3,-1.9,-4.3,-4.3c0,-2.4,1.9,-4.3,4.3,-4.3Zm0,2.2c-.5,0,-1.1,.2,-1.5,.6c-.8,.8,-.8,2.2,0,3c.8,.9,2.2,.9,3,0c.9,-.8,.9,-2.2,0,-3c-.4,-.4,-.9,-.6,-1.5,-.6Z" class="g1_2" />
<path d="M86.6,417.7c-6.2,0,-11.3,5,-11.3,11.3c0,6.2,5.1,11.3,11.3,11.3c6.3,0,11.3,-5.1,11.3,-11.3c0,-6.3,-5,-11.3,-11.3,-11.3Zm0,1.3c5.5,0,10,4.5,10,10c0,5.5,-4.5,10,-10,10c-5.5,0,-10,-4.5,-10,-10c0,-5.5,4.5,-10,10,-10Zm0,.3c-5.3,0,-9.7,4.3,-9.7,9.7c0,5.3,4.4,9.7,9.7,9.7c5.4,0,9.7,-4.4,9.7,-9.7c0,-5.4,-4.3,-9.7,-9.7,-9.7Zm0,1.3c4.6,0,8.4,3.8,8.4,8.4c0,4.6,-3.8,8.3,-8.4,8.3c-4.6,0,-8.4,-3.7,-8.4,-8.3c0,-4.6,3.8,-8.4,8.4,-8.4Zm0,2.2c-3.4,0,-6.2,2.7,-6.2,6.2c0,3.4,2.8,6.2,6.2,6.2c3.5,0,6.2,-2.8,6.2,-6.2c0,-3.5,-2.7,-6.2,-6.2,-6.2Zm0,1.8c2.4,0,4.3,2,4.3,4.4c0,2.4,-1.9,4.3,-4.3,4.3c-2.4,0,-4.3,-1.9,-4.3,-4.3c0,-2.4,1.9,-4.4,4.3,-4.4Zm0,2.2c-.5,0,-1.1,.2,-1.5,.7c-.8,.8,-.8,2.2,0,3c.8,.8,2.2,.8,3,0c.9,-.8,.9,-2.2,0,-3c-.4,-.5,-.9,-.7,-1.5,-.7Z" class="g1_2" />
<path d="M86.6,475.7c-6.2,0,-11.3,5.1,-11.3,11.3c0,6.3,5.1,11.3,11.3,11.3c6.3,0,11.3,-5,11.3,-11.3c0,-6.2,-5,-11.3,-11.3,-11.3Zm0,1.3c5.5,0,10,4.5,10,10c0,5.5,-4.5,10,-10,10c-5.5,0,-10,-4.5,-10,-10c0,-5.5,4.5,-10,10,-10Zm0,.3c-5.3,0,-9.7,4.4,-9.7,9.7c0,5.4,4.4,9.8,9.7,9.8c5.4,0,9.7,-4.4,9.7,-9.8c0,-5.3,-4.3,-9.7,-9.7,-9.7Zm0,1.4c4.6,0,8.4,3.7,8.4,8.3c0,4.7,-3.8,8.4,-8.4,8.4c-4.6,0,-8.4,-3.7,-8.4,-8.4c0,-4.6,3.8,-8.3,8.4,-8.3Zm0,2.1c-3.4,0,-6.2,2.8,-6.2,6.2c0,3.5,2.8,6.3,6.2,6.3c3.5,0,6.2,-2.8,6.2,-6.3c0,-3.4,-2.7,-6.2,-6.2,-6.2Zm0,1.9c2.4,0,4.3,1.9,4.3,4.3c0,2.4,-1.9,4.4,-4.3,4.4c-2.4,0,-4.3,-2,-4.3,-4.4c0,-2.4,1.9,-4.3,4.3,-4.3Zm0,2.2c-.5,0,-1.1,.2,-1.5,.6c-.8,.9,-.8,2.2,0,3c.8,.9,2.2,.9,3,0c.9,-.8,.9,-2.1,0,-3c-.4,-.4,-.9,-.6,-1.5,-.6Z" class="g1_2" />
<path d="M86.6,662.1c-6.2,0,-11.3,5.1,-11.3,11.3c0,6.3,5.1,11.3,11.3,11.3c6.3,0,11.3,-5,11.3,-11.3c0,-6.2,-5,-11.3,-11.3,-11.3Zm0,1.3c5.5,0,10,4.5,10,10c0,5.5,-4.5,10,-10,10c-5.5,0,-10,-4.5,-10,-10c0,-5.5,4.5,-10,10,-10Zm0,.3c-5.3,0,-9.7,4.4,-9.7,9.7c0,5.4,4.4,9.7,9.7,9.7c5.4,0,9.7,-4.3,9.7,-9.7c0,-5.3,-4.3,-9.7,-9.7,-9.7Zm0,1.4c4.6,0,8.4,3.7,8.4,8.3c0,4.6,-3.8,8.4,-8.4,8.4c-4.6,0,-8.4,-3.8,-8.4,-8.4c0,-4.6,3.8,-8.3,8.4,-8.3Zm0,2.1c-3.4,0,-6.2,2.8,-6.2,6.2c0,3.5,2.8,6.2,6.2,6.2c3.5,0,6.2,-2.7,6.2,-6.2c0,-3.4,-2.7,-6.2,-6.2,-6.2Zm0,1.9c2.4,0,4.3,1.9,4.3,4.3c0,2.4,-1.9,4.4,-4.3,4.4c-2.4,0,-4.3,-2,-4.3,-4.4c0,-2.4,1.9,-4.3,4.3,-4.3Zm0,2.2c-.5,0,-1.1,.2,-1.5,.6c-.8,.8,-.8,2.2,0,3c.8,.9,2.2,.9,3,0c.9,-.8,.9,-2.2,0,-3c-.4,-.4,-.9,-.6,-1.5,-.6Z" class="g1_2" />
<path d="M86.6,720.5c-6.2,0,-11.3,5,-11.3,11.3c0,6.2,5.1,11.3,11.3,11.3c6.3,0,11.3,-5.1,11.3,-11.3c0,-6.3,-5,-11.3,-11.3,-11.3Zm0,1.3c5.5,0,10,4.5,10,10c0,5.5,-4.5,10,-10,10c-5.5,0,-10,-4.5,-10,-10c0,-5.5,4.5,-10,10,-10Zm0,.3c-5.3,0,-9.7,4.3,-9.7,9.7c0,5.3,4.4,9.7,9.7,9.7c5.4,0,9.7,-4.4,9.7,-9.7c0,-5.4,-4.3,-9.7,-9.7,-9.7Zm0,1.3c4.6,0,8.4,3.8,8.4,8.4c0,4.6,-3.8,8.4,-8.4,8.4c-4.6,0,-8.4,-3.8,-8.4,-8.4c0,-4.6,3.8,-8.4,8.4,-8.4Zm0,2.2c-3.4,0,-6.2,2.7,-6.2,6.2c0,3.4,2.8,6.2,6.2,6.2c3.5,0,6.2,-2.8,6.2,-6.2c0,-3.5,-2.7,-6.2,-6.2,-6.2Zm0,1.9c2.4,0,4.3,1.9,4.3,4.3c0,2.4,-1.9,4.3,-4.3,4.3c-2.4,0,-4.3,-1.9,-4.3,-4.3c0,-2.4,1.9,-4.3,4.3,-4.3Zm0,2.1c-.5,0,-1.1,.3,-1.5,.7c-.8,.8,-.8,2.2,0,3c.8,.8,2.2,.8,3,0c.9,-.8,.9,-2.2,0,-3c-.4,-.4,-.9,-.7,-1.5,-.7Z" class="g1_2" />
<path d="M86.6,779.8c-6.2,0,-11.3,5,-11.3,11.3c0,6.2,5.1,11.3,11.3,11.3c6.3,0,11.3,-5.1,11.3,-11.3c0,-6.3,-5,-11.3,-11.3,-11.3Zm0,1.3c5.5,0,10,4.4,10,10c0,5.5,-4.5,10,-10,10c-5.5,0,-10,-4.5,-10,-10c0,-5.6,4.5,-10,10,-10Zm0,.2c-5.3,0,-9.7,4.4,-9.7,9.8c0,5.3,4.4,9.7,9.7,9.7c5.4,0,9.7,-4.4,9.7,-9.7c0,-5.4,-4.3,-9.8,-9.7,-9.8Zm0,1.4c4.6,0,8.4,3.7,8.4,8.4c0,4.6,-3.8,8.3,-8.4,8.3c-4.6,0,-8.4,-3.7,-8.4,-8.3c0,-4.7,3.8,-8.4,8.4,-8.4Zm0,2.1c-3.4,0,-6.2,2.8,-6.2,6.3c0,3.4,2.8,6.2,6.2,6.2c3.5,0,6.2,-2.8,6.2,-6.2c0,-3.5,-2.7,-6.3,-6.2,-6.3Zm0,1.9c2.4,0,4.3,2,4.3,4.4c0,2.4,-1.9,4.3,-4.3,4.3c-2.4,0,-4.3,-1.9,-4.3,-4.3c0,-2.4,1.9,-4.4,4.3,-4.4Zm0,2.2c-.5,0,-1.1,.2,-1.5,.6c-.8,.9,-.8,2.2,0,3.1c.8,.8,2.2,.8,3,0c.9,-.9,.9,-2.2,0,-3.1c-.4,-.4,-.9,-.6,-1.5,-.6Z" class="g1_2" />
<path d="M86.6,856.1c-6.2,0,-11.3,5.1,-11.3,11.4c0,6.2,5.1,11.3,11.3,11.3c6.3,0,11.3,-5.1,11.3,-11.3c0,-6.3,-5,-11.4,-11.3,-11.4Zm0,1.4c5.5,0,10,4.4,10,10c0,5.5,-4.5,9.9,-10,9.9c-5.5,0,-10,-4.4,-10,-9.9c0,-5.6,4.5,-10,10,-10Zm0,.2c-5.3,0,-9.7,4.4,-9.7,9.8c0,5.3,4.4,9.7,9.7,9.7c5.4,0,9.7,-4.4,9.7,-9.7c0,-5.4,-4.3,-9.8,-9.7,-9.8Zm0,1.4c4.6,0,8.4,3.7,8.4,8.4c0,4.6,-3.8,8.3,-8.4,8.3c-4.6,0,-8.4,-3.7,-8.4,-8.3c0,-4.7,3.8,-8.4,8.4,-8.4Zm0,2.1c-3.4,0,-6.2,2.8,-6.2,6.3c0,3.4,2.8,6.2,6.2,6.2c3.5,0,6.2,-2.8,6.2,-6.2c0,-3.5,-2.7,-6.3,-6.2,-6.3Zm0,1.9c2.4,0,4.3,2,4.3,4.4c0,2.3,-1.9,4.3,-4.3,4.3c-2.4,0,-4.3,-2,-4.3,-4.3c0,-2.4,1.9,-4.4,4.3,-4.4Zm0,2.2c-.5,0,-1.1,.2,-1.5,.6c-.8,.9,-.8,2.2,0,3.1c.8,.8,2.2,.8,3,0c.9,-.9,.9,-2.2,0,-3.1c-.4,-.4,-.9,-.6,-1.5,-.6Z" class="g1_2" />
<path d="M86.6,931.3c-6.2,0,-11.3,5.1,-11.3,11.3c0,6.3,5.1,11.3,11.3,11.3c6.3,0,11.3,-5,11.3,-11.3c0,-6.2,-5,-11.3,-11.3,-11.3Zm0,1.3c5.5,0,10,4.5,10,10c0,5.5,-4.5,10,-10,10c-5.5,0,-10,-4.5,-10,-10c0,-5.5,4.5,-10,10,-10Zm0,.3c-5.3,0,-9.7,4.4,-9.7,9.7c0,5.4,4.4,9.7,9.7,9.7c5.4,0,9.7,-4.3,9.7,-9.7c0,-5.3,-4.3,-9.7,-9.7,-9.7Zm0,1.3c4.6,0,8.4,3.8,8.4,8.4c0,4.6,-3.8,8.4,-8.4,8.4c-4.6,0,-8.4,-3.8,-8.4,-8.4c0,-4.6,3.8,-8.4,8.4,-8.4Zm0,2.2c-3.4,0,-6.2,2.8,-6.2,6.2c0,3.5,2.8,6.2,6.2,6.2c3.5,0,6.2,-2.7,6.2,-6.2c0,-3.4,-2.7,-6.2,-6.2,-6.2Zm0,1.9c2.4,0,4.3,1.9,4.3,4.3c0,2.4,-1.9,4.3,-4.3,4.3c-2.4,0,-4.3,-1.9,-4.3,-4.3c0,-2.4,1.9,-4.3,4.3,-4.3Zm0,2.2c-.5,0,-1.1,.2,-1.5,.6c-.8,.8,-.8,2.2,0,3c.8,.9,2.2,.9,3,0c.9,-.8,.9,-2.2,0,-3c-.4,-.4,-.9,-.6,-1.5,-.6Z" class="g1_2" />
<path d="M86.6,991.8c-6.2,0,-11.3,5.1,-11.3,11.3c0,6.3,5.1,11.3,11.3,11.3c6.3,0,11.3,-5,11.3,-11.3c0,-6.2,-5,-11.3,-11.3,-11.3Zm0,1.3c5.5,0,10,4.5,10,10c0,5.5,-4.5,10,-10,10c-5.5,0,-10,-4.5,-10,-10c0,-5.5,4.5,-10,10,-10Zm0,.3c-5.3,0,-9.7,4.4,-9.7,9.7c0,5.4,4.4,9.7,9.7,9.7c5.4,0,9.7,-4.3,9.7,-9.7c0,-5.3,-4.3,-9.7,-9.7,-9.7Zm0,1.3c4.6,0,8.4,3.8,8.4,8.4c0,4.6,-3.8,8.4,-8.4,8.4c-4.6,0,-8.4,-3.8,-8.4,-8.4c0,-4.6,3.8,-8.4,8.4,-8.4Zm0,2.2c-3.4,0,-6.2,2.8,-6.2,6.2c0,3.5,2.8,6.2,6.2,6.2c3.5,0,6.2,-2.7,6.2,-6.2c0,-3.4,-2.7,-6.2,-6.2,-6.2Zm0,1.9c2.4,0,4.3,1.9,4.3,4.3c0,2.4,-1.9,4.3,-4.3,4.3c-2.4,0,-4.3,-1.9,-4.3,-4.3c0,-2.4,1.9,-4.3,4.3,-4.3Zm0,2.2c-.5,0,-1.1,.2,-1.5,.6c-.8,.8,-.8,2.2,0,3c.8,.9,2.2,.9,3,0c.9,-.8,.9,-2.2,0,-3c-.4,-.4,-.9,-.6,-1.5,-.6Z" class="g1_2" />
<path d="M86.6,1052.3c-6.2,0,-11.3,5.1,-11.3,11.3c0,6.3,5.1,11.3,11.3,11.3c6.3,0,11.3,-5,11.3,-11.3c0,-6.2,-5,-11.3,-11.3,-11.3Zm0,1.3c5.5,0,10,4.5,10,10c0,5.5,-4.5,10,-10,10c-5.5,0,-10,-4.5,-10,-10c0,-5.5,4.5,-10,10,-10Zm0,.3c-5.3,0,-9.7,4.4,-9.7,9.7c0,5.4,4.4,9.7,9.7,9.7c5.4,0,9.7,-4.3,9.7,-9.7c0,-5.3,-4.3,-9.7,-9.7,-9.7Zm0,1.3c4.6,0,8.4,3.8,8.4,8.4c0,4.6,-3.8,8.4,-8.4,8.4c-4.6,0,-8.4,-3.8,-8.4,-8.4c0,-4.6,3.8,-8.4,8.4,-8.4Zm0,2.2c-3.4,0,-6.2,2.8,-6.2,6.2c0,3.5,2.8,6.2,6.2,6.2c3.5,0,6.2,-2.7,6.2,-6.2c0,-3.4,-2.7,-6.2,-6.2,-6.2Zm0,1.9c2.4,0,4.3,1.9,4.3,4.3c0,2.4,-1.9,4.3,-4.3,4.3c-2.4,0,-4.3,-1.9,-4.3,-4.3c0,-2.4,1.9,-4.3,4.3,-4.3Zm0,2.2c-.5,0,-1.1,.2,-1.5,.6c-.8,.8,-.8,2.2,0,3c.8,.9,2.2,.9,3,0c.9,-.8,.9,-2.2,0,-3c-.4,-.4,-.9,-.6,-1.5,-.6Z" class="g1_2" />
<path d="M86.6,1110.4c-6.2,0,-11.3,5,-11.3,11.3c0,6.2,5.1,11.3,11.3,11.3c6.3,0,11.3,-5.1,11.3,-11.3c0,-6.3,-5,-11.3,-11.3,-11.3Zm0,1.3c5.5,0,10,4.5,10,10c0,5.5,-4.5,10,-10,10c-5.5,0,-10,-4.5,-10,-10c0,-5.5,4.5,-10,10,-10Zm0,.3c-5.3,0,-9.7,4.3,-9.7,9.7c0,5.3,4.4,9.7,9.7,9.7c5.4,0,9.7,-4.4,9.7,-9.7c0,-5.4,-4.3,-9.7,-9.7,-9.7Zm0,1.3c4.6,0,8.4,3.8,8.4,8.4c0,4.6,-3.8,8.3,-8.4,8.3c-4.6,0,-8.4,-3.7,-8.4,-8.3c0,-4.6,3.8,-8.4,8.4,-8.4Zm0,2.1c-3.4,0,-6.2,2.8,-6.2,6.3c0,3.4,2.8,6.2,6.2,6.2c3.5,0,6.2,-2.8,6.2,-6.2c0,-3.5,-2.7,-6.3,-6.2,-6.3Zm0,1.9c2.4,0,4.3,2,4.3,4.4c0,2.4,-1.9,4.3,-4.3,4.3c-2.4,0,-4.3,-1.9,-4.3,-4.3c0,-2.4,1.9,-4.4,4.3,-4.4Zm0,2.2c-.5,0,-1.1,.2,-1.5,.7c-.8,.8,-.8,2.2,0,3c.8,.8,2.2,.8,3,0c.9,-.8,.9,-2.2,0,-3c-.4,-.5,-.9,-.7,-1.5,-.7Z" class="g1_2" />
</svg>